<?xml version="1.0" standalone="no"?>
<!DOCTYPE svg PUBLIC "-//W3C//DTD SVG 20010904//EN"
 "http://www.w3.org/TR/2001/REC-SVG-20010904/DTD/svg10.dtd">
<svg version="1.0" xmlns="http://www.w3.org/2000/svg"
 width="1157.000000pt" height="661.000000pt" viewBox="0 0 1157.000000 661.000000"
 preserveAspectRatio="xMidYMid meet">

<g transform="translate(0.000000,661.000000) scale(0.100000,-0.100000)"
fill="#000000" stroke="none">
<path d="M7529 6606 c-2 -2 -92 -9 -199 -16 -1326 -79 -2661 -452 -3680 -1027
-648 -367 -1139 -782 -1550 -1314 l-60 -78 422 -3 423 -3 150 145 c464 449
964 805 1620 1152 902 478 2088 884 3194 1094 102 19 186 36 188 38 12 12
-495 24 -508 12z"/>
<path d="M1310 3746 c-121 -35 -208 -108 -260 -218 -86 -182 -58 -376 72 -493
60 -54 143 -95 328 -163 305 -112 344 -145 344 -292 0 -84 -23 -141 -74 -178
-68 -50 -196 -66 -287 -36 -52 17 -115 71 -140 119 -22 41 -43 123 -43 167 0
68 1 68 -131 68 l-119 0 0 -270 0 -270 115 0 115 0 0 70 c0 39 3 70 8 70 4 0
27 -21 52 -47 122 -126 369 -151 567 -57 84 40 147 106 196 203 27 56 32 77
35 161 7 157 -39 278 -130 351 -71 56 -122 80 -336 160 -208 77 -260 104 -298
155 -52 67 -41 198 21 271 41 48 86 63 192 63 167 0 256 -91 272 -280 l6 -65
120 0 120 0 0 250 0 250 -115 0 -115 0 -5 -60 -5 -60 -46 42 c-25 24 -73 55
-105 70 -52 23 -74 27 -184 29 -82 2 -140 -1 -170 -10z"/>
<path d="M4214 3740 c-142 -37 -277 -122 -357 -225 -60 -78 -126 -223 -148
-328 -25 -120 -27 -340 -4 -452 32 -156 109 -302 203 -387 111 -99 225 -158
343 -177 43 -8 209 -9 514 -4 l450 8 3 99 3 99 -118 -6 c-65 -4 -149 -10 -188
-14 l-70 -6 76 74 c130 128 196 296 206 524 4 96 1 139 -15 215 -67 321 -245
521 -519 584 -100 22 -286 21 -379 -4z m331 -186 c66 -23 160 -117 203 -202
52 -105 67 -193 67 -392 0 -197 -10 -251 -72 -380 -47 -98 -128 -179 -210
-210 -84 -32 -216 -26 -296 13 -97 48 -174 158 -211 301 -60 230 -29 561 67
712 50 79 148 152 234 174 51 13 157 5 218 -16z"/>
<path d="M0 3645 l0 -95 95 0 95 0 0 -590 0 -590 -95 0 -95 0 0 -90 0 -90 340
0 340 0 0 90 0 90 -100 0 -100 0 0 590 0 589 98 3 97 3 0 90 0 90 -337 3 -338
2 0 -95z"/>
<path d="M2287 3733 c-4 -3 -7 -120 -7 -260 l0 -253 125 0 125 0 0 160 0 160
125 0 125 0 0 -585 0 -585 -105 0 -105 0 0 -95 0 -95 355 0 355 0 0 95 0 95
-105 0 -105 0 0 585 0 585 130 0 130 0 0 -160 0 -160 120 0 120 0 0 260 0 260
-638 0 c-351 0 -642 -3 -645 -7z"/>
<path d="M5380 3645 l0 -95 85 0 85 0 0 -590 0 -590 -85 0 -85 0 0 -96 0 -97
443 6 c279 3 464 10 502 17 134 27 242 109 298 227 30 63 32 76 32 173 0 98
-2 110 -33 175 -43 90 -112 157 -193 186 -32 12 -59 26 -59 31 0 4 12 13 27
19 143 54 218 151 230 297 14 170 -69 323 -211 388 -83 38 -165 44 -613 44
l-423 0 0 -95z m846 -117 c109 -59 144 -209 80 -336 -48 -94 -96 -112 -302
-112 l-154 0 0 236 0 236 173 -4 c136 -3 178 -7 203 -20z m-12 -659 c54 -15
121 -80 140 -136 47 -136 -6 -277 -122 -331 -50 -22 -71 -25 -219 -30 l-163
-5 0 257 0 256 163 0 c89 0 179 -5 201 -11z"/>
<path d="M6798 3733 c12 -2 32 -2 45 0 12 2 2 4 -23 4 -25 0 -35 -2 -22 -4z"/>
<path d="M6898 3710 c19 -12 41 -38 52 -63 11 -23 20 -36 20 -29 0 36 -63 112
-94 112 -6 0 4 -9 22 -20z"/>
<path d="M6714 3688 l-29 -33 33 29 c17 17 32 31 32 33 0 8 -8 1 -36 -29z"/>
<path d="M6750 3590 c0 -73 2 -80 20 -80 16 0 20 7 20 31 0 28 2 30 33 27 27
-2 33 -8 35 -30 5 -39 32 -37 32 1 0 17 -5 33 -10 36 -8 5 -7 11 0 20 6 8 10
26 8 42 -3 27 -5 28 -70 31 l-68 3 0 -81z m99 51 c23 -15 5 -41 -29 -41 -25 0
-30 4 -30 25 0 19 5 25 23 25 12 0 28 -4 36 -9z"/>
<path d="M6676 3635 c-3 -9 -5 -33 -5 -53 2 -33 2 -32 9 13 8 53 6 66 -4 40z"/>
<path d="M6961 3554 c0 -11 3 -14 6 -6 3 7 2 16 -1 19 -3 4 -6 -2 -5 -13z"/>
<path d="M6700 3501 c5 -11 15 -23 21 -27 6 -3 3 5 -6 20 -20 30 -30 35 -15 7z"/>
<path d="M6919 3483 l-24 -28 28 24 c15 14 27 26 27 28 0 8 -8 1 -31 -24z"/>
<path d="M6747 3459 c7 -7 15 -10 18 -7 3 3 -2 9 -12 12 -14 6 -15 5 -6 -5z"/>
<path d="M6788 3443 c7 -3 16 -2 19 1 4 3 -2 6 -13 5 -11 0 -14 -3 -6 -6z"/>
<path d="M6838 3443 c6 -2 18 -2 25 0 6 3 1 5 -13 5 -14 0 -19 -2 -12 -5z"/>
<path d="M7514 1816 c-32 -32 -34 -38 -34 -100 l0 -66 -35 0 c-32 0 -35 -2
-35 -30 0 -28 3 -30 35 -30 l35 0 0 -170 0 -170 45 0 45 0 0 170 0 170 35 0
c32 0 35 2 35 30 0 28 -3 30 -35 30 l-35 0 0 60 c0 50 3 61 21 71 12 6 32 9
45 6 21 -4 24 0 24 23 0 32 -15 40 -72 40 -32 0 -47 -7 -74 -34z"/>
<path d="M6130 1545 l0 -295 45 0 45 0 0 295 0 295 -45 0 -45 0 0 -295z"/>
<path d="M4600 1785 l0 -45 45 0 45 0 0 45 0 45 -45 0 -45 0 0 -45z"/>
<path d="M1020 1758 c-83 -389 -147 -955 -164 -1468 l-6 -155 24 135 c81 450
220 935 393 1368 l70 172 -153 0 -152 0 -12 -52z"/>
<path d="M6685 1798 c-53 -19 -83 -47 -100 -92 -30 -79 5 -143 111 -202 72
-40 94 -65 94 -107 0 -78 -59 -99 -190 -66 -11 3 -16 -5 -18 -28 -4 -42 21
-55 107 -57 118 -2 191 58 191 158 0 72 -24 106 -112 156 -88 51 -98 63 -98
112 0 32 5 40 32 54 30 16 87 15 131 -2 14 -5 17 0 17 29 0 23 -6 37 -16 41
-33 13 -120 15 -149 4z"/>
<path d="M1750 1525 l0 -275 50 0 50 0 0 275 0 275 -50 0 -50 0 0 -275z"/>
<path d="M2483 1748 c-31 -10 -33 -14 -33 -54 0 -42 -1 -44 -30 -44 -27 0 -30
-3 -30 -30 0 -27 3 -30 30 -30 l30 0 0 -125 c0 -177 20 -216 110 -217 48 0 60
7 60 38 0 20 -5 24 -28 24 -47 0 -52 13 -52 152 l0 128 40 0 c38 0 40 2 40 30
0 28 -2 30 -40 30 l-40 0 0 55 c0 59 -2 60 -57 43z"/>
<path d="M4363 1749 c-31 -9 -33 -12 -33 -54 0 -45 0 -45 -35 -45 -32 0 -35
-2 -35 -30 0 -27 3 -30 34 -30 l35 0 3 -144 c3 -160 10 -178 72 -194 51 -14
90 -1 94 30 3 24 0 27 -35 30 l-38 3 -3 138 -3 137 41 0 c38 0 40 2 40 30 0
28 -2 30 -40 30 l-40 0 0 55 c0 59 -1 60 -57 44z"/>
<path d="M7803 1748 c-31 -10 -33 -14 -33 -54 0 -44 0 -44 -36 -44 -33 0 -35
-2 -32 -27 2 -23 8 -29 36 -31 l32 -3 0 -132 c0 -181 20 -214 126 -205 34 3
39 6 42 31 3 24 0 27 -25 27 -49 0 -53 13 -53 152 l0 128 40 0 c38 0 40 2 40
30 0 28 -2 30 -40 30 l-40 0 0 55 c0 59 -2 60 -57 43z"/>
<path d="M2123 1640 c-18 -11 -33 -24 -33 -30 0 -5 -7 -10 -15 -10 -9 0 -15 9
-15 25 0 23 -4 25 -40 25 l-40 0 0 -200 0 -200 45 0 45 0 0 144 c0 130 2 146
21 170 23 29 63 35 95 12 17 -13 19 -30 22 -170 l4 -156 45 0 45 0 -4 158 c-5
174 -15 209 -68 237 -39 20 -69 19 -107 -5z"/>
<path d="M2815 1646 c-135 -60 -146 -304 -17 -375 49 -26 117 -31 176 -11 29
9 36 16 34 33 -3 21 -8 22 -75 19 -39 -2 -81 -1 -92 3 -25 8 -51 53 -51 90 l0
25 121 0 122 0 -6 51 c-10 80 -41 134 -91 158 -49 24 -79 26 -121 7z m99 -65
c9 -10 20 -35 23 -55 l6 -36 -77 0 c-42 0 -76 4 -76 9 0 18 21 66 37 83 21 23
66 23 87 -1z"/>
<path d="M3284 1641 c-18 -11 -35 -24 -38 -30 -12 -19 -26 -12 -26 14 0 23 -4
25 -40 25 l-40 0 0 -200 0 -200 45 0 45 0 0 140 c0 136 1 142 25 165 15 16 36
25 55 25 28 0 30 2 30 40 0 46 -10 49 -56 21z"/>
<path d="M3600 1653 c-8 -3 -28 -17 -45 -31 l-30 -25 -3 26 c-3 24 -8 27 -43
27 l-39 0 0 -200 0 -200 45 0 45 0 0 150 c0 137 2 152 20 170 11 11 32 20 48
20 55 0 57 -6 62 -177 l5 -158 43 -3 42 -3 0 156 c0 125 -3 164 -16 191 -24
51 -83 76 -134 57z"/>
<path d="M3937 1645 c-49 -17 -51 -19 -43 -49 6 -24 7 -25 41 -10 56 23 110
19 134 -12 12 -15 21 -37 21 -50 0 -20 -6 -23 -57 -29 -87 -9 -142 -32 -164
-69 -36 -58 -16 -132 44 -162 44 -23 90 -19 135 11 l37 25 5 -22 c5 -18 14
-24 43 -26 l37 -3 0 148 c0 134 -2 153 -22 193 -17 34 -32 48 -58 57 -46 16
-106 15 -153 -2z m143 -235 c0 -21 -5 -50 -11 -64 -16 -34 -63 -50 -98 -33
-22 11 -26 19 -26 57 0 41 3 46 35 62 19 10 50 18 68 18 31 0 32 -2 32 -40z"/>
<path d="M4932 1653 c-36 -7 -99 -73 -111 -118 -28 -103 -1 -211 65 -258 33
-23 51 -28 98 -28 104 0 165 64 174 181 12 157 -83 250 -226 223z m97 -81 c47
-47 49 -194 4 -244 -21 -23 -75 -23 -96 0 -46 51 -44 197 3 244 36 35 54 35
89 0z"/>
<path d="M5414 1641 c-18 -11 -35 -24 -38 -30 -12 -19 -26 -12 -26 14 0 23 -4
25 -40 25 l-40 0 0 -200 0 -200 45 0 45 0 0 148 c0 135 2 150 20 170 21 22 64
29 88 14 23 -15 32 -75 32 -204 l0 -128 40 0 40 0 0 160 c0 178 -8 208 -60
235 -39 20 -68 19 -106 -4z"/>
<path d="M5764 1644 c-37 -13 -40 -17 -36 -43 4 -29 4 -29 38 -15 80 33 154 7
154 -55 0 -29 -2 -30 -57 -36 -84 -10 -119 -23 -147 -55 -34 -41 -41 -82 -20
-125 31 -67 115 -85 182 -40 l37 25 8 -25 c7 -21 15 -25 45 -25 l37 0 -5 164
c-4 147 -7 168 -26 193 -37 50 -128 66 -210 37z m152 -239 c-8 -60 -21 -84
-53 -96 -36 -13 -81 6 -89 37 -16 62 27 103 110 104 l39 0 -7 -45z"/>
<path d="M7105 1648 c-72 -25 -114 -97 -115 -196 0 -130 61 -203 171 -204 95
0 160 60 175 162 9 57 -9 141 -37 181 -40 57 -125 81 -194 57z m102 -72 c26
-23 28 -30 31 -113 3 -75 0 -93 -18 -121 -18 -29 -25 -33 -57 -30 -56 5 -78
42 -78 131 0 81 18 135 49 147 33 14 43 12 73 -14z"/>
<path d="M8715 1647 c-34 -11 -40 -17 -43 -45 l-3 -31 35 14 c81 34 156 10
156 -50 0 -33 -1 -33 -52 -40 -130 -17 -178 -52 -178 -130 0 -103 120 -155
195 -85 29 27 45 25 45 -5 0 -23 4 -25 41 -25 l41 0 -4 153 c-4 164 -12 195
-60 230 -33 25 -117 32 -173 14z m143 -248 c-6 -61 -33 -92 -79 -92 -61 0 -90
70 -46 110 28 26 43 31 91 32 l39 1 -5 -51z"/>
<path d="M9225 1648 c-11 -6 -31 -22 -45 -37 l-25 -26 -3 33 c-3 30 -6 32 -43
32 l-39 0 0 -200 0 -200 45 0 45 0 0 133 c0 158 7 178 68 191 40 9 42 11 42
48 0 40 -10 46 -45 26z"/>
<path d="M9450 1642 c-102 -56 -132 -239 -54 -332 37 -44 78 -61 141 -61 78 0
113 16 113 52 0 26 -2 28 -26 19 -14 -6 -50 -10 -80 -10 -69 0 -104 29 -104
85 l0 35 116 0 117 0 -6 60 c-9 100 -57 158 -138 167 -31 3 -54 -1 -79 -15z
m107 -64 c11 -13 23 -38 25 -55 l5 -33 -74 0 c-67 0 -73 2 -73 20 0 26 26 77
42 83 28 12 56 6 75 -15z"/>
<path d="M4600 1450 l0 -200 45 0 45 0 0 200 0 200 -45 0 -45 0 0 -200z"/>
<path d="M8002 1638 c3 -7 27 -98 54 -201 l49 -188 50 3 50 3 31 144 c31 138
48 182 58 150 6 -17 66 -285 66 -293 0 -3 22 -6 50 -6 49 0 49 1 59 38 5 20
28 106 50 190 23 84 41 158 41 163 0 5 -17 9 -38 9 l-39 0 -28 -137 c-15 -76
-31 -144 -35 -151 -13 -25 -26 11 -55 151 l-28 137 -52 0 -52 0 -28 -132 c-30
-145 -42 -180 -55 -157 -5 8 -20 76 -35 152 l-28 137 -44 0 c-32 0 -44 -4 -41
-12z"/>
<path d="M6420 962 c-45 -22 -60 -53 -60 -124 l0 -58 -35 0 c-32 0 -35 -2 -35
-30 0 -28 3 -30 35 -30 l35 0 0 -170 0 -170 45 0 45 0 0 170 0 170 35 0 c32 0
35 2 35 30 0 28 -3 30 -35 30 l-35 0 0 53 c0 62 11 77 57 77 30 0 33 3 33 29
0 24 -5 29 -31 35 -45 9 -50 8 -89 -12z"/>
<path d="M5880 675 l0 -295 45 0 45 0 0 295 0 295 -45 0 -45 0 0 -295z"/>
<path d="M11470 856 c0 -94 -3 -116 -14 -116 -8 0 -18 5 -22 11 -3 6 -22 17
-41 25 -30 13 -38 13 -77 -4 -161 -72 -98 -440 68 -398 14 3 38 17 54 31 37
31 42 31 42 0 0 -23 4 -25 45 -25 l45 0 -2 293 -3 292 -47 3 -48 3 0 -115z
m-26 -169 c30 -41 30 -173 0 -214 -29 -38 -86 -44 -107 -11 -35 54 -31 187 5
234 27 34 73 30 102 -9z"/>
<path d="M3150 915 l0 -45 45 0 45 0 0 45 0 45 -45 0 -45 0 0 -45z"/>
<path d="M6110 915 l0 -45 45 0 45 0 0 45 0 45 -45 0 -45 0 0 -45z"/>
<path d="M6627 953 c-4 -3 -7 -24 -7 -45 l0 -38 45 0 45 0 0 45 0 45 -38 0
c-21 0 -42 -3 -45 -7z"/>
<path d="M7930 915 l0 -45 45 0 45 0 0 45 0 45 -45 0 -45 0 0 -45z"/>
<path d="M1710 890 l0 -40 60 0 60 0 0 -235 0 -235 50 0 50 0 0 235 0 235 60
0 60 0 0 40 0 40 -170 0 -170 0 0 -40z"/>
<path d="M4595 907 c-116 -65 -159 -266 -89 -414 36 -74 108 -123 183 -123 20
0 36 -12 64 -50 35 -47 40 -50 83 -50 l45 0 -19 28 c-11 15 -32 38 -46 51 -33
31 -33 41 5 77 66 62 97 175 80 286 -15 89 -47 147 -105 186 -61 41 -138 45
-201 9z m146 -57 c30 -17 58 -83 65 -157 17 -177 -63 -292 -165 -238 -41 21
-64 77 -69 171 -5 100 16 183 54 213 29 23 83 28 115 11z"/>
<path d="M9628 924 c-5 -4 -8 -128 -8 -276 l0 -268 105 0 c122 0 172 18 205
73 29 47 27 117 -5 156 -14 16 -35 33 -45 36 -27 9 -25 29 3 44 78 42 74 176
-5 217 -35 18 -237 33 -250 18z m204 -94 c24 -29 23 -71 -3 -104 -17 -22 -28
-26 -70 -26 l-49 0 0 81 0 82 52 -5 c38 -4 57 -12 70 -28z m7 -236 c29 -37 27
-89 -4 -119 -19 -20 -34 -25 -75 -25 l-50 0 0 85 0 85 54 0 c47 0 57 -4 75
-26z"/>
<path d="M2918 878 c-37 -10 -38 -12 -38 -54 0 -44 0 -44 -35 -44 -32 0 -35
-2 -35 -30 0 -28 3 -30 35 -30 l35 0 0 -144 c0 -137 1 -144 24 -169 46 -50
146 -45 146 7 0 21 -5 25 -37 28 l-38 3 -3 138 -3 137 41 0 c38 0 40 2 40 30
0 28 -2 30 -40 30 l-40 0 0 55 c0 30 -3 55 -7 54 -5 -1 -25 -6 -45 -11z"/>
<path d="M7698 878 c-37 -10 -38 -12 -38 -54 0 -44 0 -44 -35 -44 -32 0 -35
-2 -35 -30 0 -28 3 -30 35 -30 l35 0 0 -135 c0 -162 9 -188 71 -206 54 -17 93
-3 97 33 3 24 0 27 -35 30 l-38 3 -3 138 -3 137 41 0 c38 0 40 2 40 30 0 28
-2 30 -40 30 l-40 0 0 55 c0 30 -3 55 -7 54 -5 -1 -25 -6 -45 -11z"/>
<path d="M2170 768 c-55 -28 -85 -72 -100 -144 -36 -175 107 -298 272 -235 20
8 25 15 21 35 -5 22 -9 25 -32 19 -14 -4 -50 -8 -80 -7 -46 0 -57 4 -77 28
-15 17 -24 40 -24 62 l0 34 121 0 121 0 -6 48 c-20 139 -116 210 -216 160z
m95 -60 c15 -14 28 -38 32 -60 l6 -38 -77 0 c-84 0 -87 3 -62 64 24 57 60 69
101 34z"/>
<path d="M2574 779 c-37 -11 -82 -53 -90 -86 -14 -54 6 -80 111 -146 38 -25
51 -39 53 -61 2 -16 -2 -32 -10 -37 -18 -12 -101 -11 -132 1 -25 9 -26 8 -26
-25 0 -32 3 -35 42 -46 52 -14 125 -5 158 19 14 10 33 35 43 55 17 33 17 38 2
67 -9 17 -46 51 -86 77 -73 48 -92 80 -68 109 11 13 26 15 76 11 l63 -5 0 28
c0 19 -6 30 -17 34 -42 12 -90 14 -119 5z"/>
<path d="M3532 779 c-18 -5 -38 -18 -45 -29 -16 -27 -35 -25 -39 3 -2 18 -10
23 -40 25 l-38 3 0 -200 0 -201 45 0 45 0 0 148 c0 132 2 151 18 165 22 20 83
22 100 5 8 -8 12 -59 12 -165 l0 -153 45 0 45 0 0 158 c0 140 -2 161 -20 190
-16 26 -76 66 -92 61 -2 0 -18 -5 -36 -10z"/>
<path d="M3883 769 c-76 -37 -112 -160 -80 -270 21 -71 61 -110 120 -116 38
-5 48 -1 80 26 43 38 51 29 42 -41 -10 -73 -38 -98 -110 -98 -31 0 -71 7 -90
14 l-35 15 0 -38 c0 -37 1 -38 51 -49 117 -27 206 -1 243 73 19 36 21 61 24
268 l3 227 -35 0 c-31 0 -36 -4 -43 -31 l-8 -31 -33 31 c-17 17 -38 31 -46 31
-8 0 -20 2 -28 5 -7 3 -32 -4 -55 -16z m124 -73 c25 -21 28 -32 31 -97 4 -85
-6 -121 -42 -145 -62 -40 -106 14 -106 131 0 119 51 168 117 111z"/>
<path d="M5535 775 c-27 -8 -54 -14 -59 -15 -6 0 0 -49 8 -57 1 -1 22 5 46 13
79 27 140 -2 140 -68 0 -27 -2 -28 -47 -28 -67 0 -119 -17 -156 -50 -28 -25
-32 -35 -32 -78 0 -57 20 -86 72 -108 46 -20 65 -18 107 11 45 30 52 31 59 5
4 -15 14 -20 41 -20 l36 0 0 145 c0 162 -12 210 -58 237 -41 24 -101 29 -157
13z m127 -245 c-4 -55 -24 -88 -59 -96 -42 -11 -77 14 -81 56 -1 19 2 41 6 48
12 18 81 42 112 39 23 -2 25 -5 22 -47z"/>
<path d="M6972 778 c-90 -20 -152 -121 -139 -229 12 -100 73 -165 163 -175 73
-7 108 6 112 42 l3 29 -61 -3 c-49 -3 -66 0 -82 15 -60 53 -65 183 -9 239 23
23 32 26 83 22 58 -4 58 -4 58 23 0 18 -6 29 -17 32 -45 13 -71 14 -111 5z"/>
<path d="M7315 784 c-79 -17 -96 -27 -93 -53 2 -17 8 -25 18 -22 107 28 153
21 170 -24 21 -54 14 -65 -37 -65 -108 0 -181 -45 -189 -115 -6 -49 10 -82 55
-112 44 -30 79 -29 125 2 45 30 56 31 56 5 0 -17 7 -20 41 -20 l41 0 -4 159
c-3 143 -5 162 -24 188 -32 43 -104 69 -159 57z m95 -254 c0 -41 -5 -56 -25
-75 -47 -48 -118 -20 -118 46 0 37 20 59 64 69 75 18 79 15 79 -40z"/>
<path d="M8267 778 c-80 -21 -127 -100 -127 -209 1 -134 101 -221 218 -191 90
24 139 109 129 224 -12 130 -107 206 -220 176z m96 -76 c46 -51 41 -208 -8
-249 -34 -30 -51 -29 -84 5 -48 47 -53 182 -9 237 24 31 77 34 101 7z"/>
<path d="M8753 770 c-24 -10 -43 -24 -43 -30 0 -5 -7 -10 -15 -10 -9 0 -15 9
-15 25 0 23 -4 25 -40 25 l-40 0 0 -200 0 -200 45 0 45 0 0 143 c0 168 7 187
69 187 61 0 65 -13 70 -181 l3 -149 39 0 39 0 0 158 c0 167 -6 191 -50 223
-40 28 -62 30 -107 9z"/>
<path d="M9114 780 c-66 -20 -107 -85 -88 -138 9 -25 54 -64 126 -107 36 -22
51 -71 26 -86 -18 -12 -116 -11 -139 1 -17 10 -19 7 -19 -24 0 -33 3 -36 42
-47 52 -14 125 -5 158 19 14 10 33 33 42 52 26 50 7 85 -78 143 -75 51 -97 85
-74 113 12 13 26 15 77 11 l63 -5 0 28 c0 19 -6 30 -17 34 -41 12 -90 14 -119
6z"/>
<path d="M10187 778 c-103 -27 -155 -163 -111 -291 52 -152 262 -153 320 0 25
64 15 170 -20 223 -41 62 -113 88 -189 68z m101 -83 c44 -55 39 -190 -9 -237
-33 -34 -50 -35 -85 -5 -47 41 -52 199 -7 249 24 27 77 24 101 -7z"/>
<path d="M10635 784 c-79 -18 -95 -27 -95 -57 0 -24 3 -28 18 -22 65 27 139
28 160 2 6 -7 13 -29 17 -49 l7 -38 -48 0 c-112 0 -182 -44 -191 -120 -4 -36
-1 -51 17 -73 50 -63 115 -70 181 -21 l34 25 3 -25 c3 -23 8 -26 44 -26 l40 0
-4 159 c-3 143 -5 162 -24 188 -32 43 -104 69 -159 57z m93 -261 c-4 -43 -10
-61 -28 -75 -69 -56 -158 37 -95 101 13 14 63 28 104 30 23 1 23 -1 19 -56z"/>
<path d="M11104 780 c-12 -5 -30 -20 -42 -34 -26 -34 -42 -33 -42 4 0 28 -2
30 -40 30 l-40 0 0 -200 0 -200 44 0 44 0 4 139 c3 158 12 178 77 183 35 3 36
4 36 42 0 42 -8 49 -41 36z"/>
<path d="M3150 580 l0 -200 45 0 45 0 0 200 0 200 -45 0 -45 0 0 -200z"/>
<path d="M5020 625 c0 -123 3 -161 17 -189 32 -68 123 -84 173 -31 30 32 40
32 40 0 0 -22 4 -25 40 -25 l40 0 0 201 0 200 -42 -3 -43 -3 -5 -153 c-4 -137
-7 -155 -24 -168 -27 -19 -70 -18 -89 4 -14 16 -17 43 -17 170 l0 152 -45 0
-45 0 0 -155z"/>
<path d="M6110 580 l0 -200 45 0 45 0 0 200 0 200 -45 0 -45 0 0 -200z"/>
<path d="M6620 580 l0 -200 45 0 45 0 0 200 0 200 -45 0 -45 0 0 -200z"/>
<path d="M7930 580 l0 -200 45 0 45 0 0 200 0 200 -45 0 -45 0 0 -200z"/>
</g>
</svg>
